<svg width="113" height="113" viewBox="0 0 113 113" fill="none" xmlns="http://www.w3.org/2000/svg">
<path fill-rule="evenodd" clip-rule="evenodd" d="M60.5358 0H52.4643V35.738L39.0766 2.60229L31.5929 5.6259L45.3274 39.62L19.4022 13.6948L13.6948 19.4022L38.543 44.2503L6.34162 30.1812L3.11009 37.5775L37.1829 52.4643H0V60.5358H37.1829L3.1101 75.4224L6.34162 82.8188L38.5429 68.7498L13.6948 93.5979L19.4022 99.305L45.3274 73.3799L31.5929 107.374L39.0766 110.398L52.4643 77.2621V113H60.5358V77.2621L73.9235 110.398L81.4069 107.374L67.6729 73.3799L93.5979 99.305L99.305 93.5979L74.4568 68.7498L106.658 82.8188L109.89 75.4224L75.8174 60.5358H113V52.4643H75.8168L109.89 37.5775L106.658 30.1812L74.4568 44.2503L99.305 19.4021L93.5979 13.6948L67.6729 39.6199L81.4069 5.6259L73.9235 2.60229L60.5358 35.738V0Z" fill="#5919C6"/>
</svg>
