<svg width="20" height="20" viewBox="0 0 20 20" fill="none" xmlns="http://www.w3.org/2000/svg">
<path d="M19.375 7.5H12.5V0.625C12.5 0.45924 12.4342 0.300269 12.3169 0.183058C12.1997 0.065848 12.0408 0 11.875 0L8.125 0C7.95924 0 7.80027 0.065848 7.68306 0.183058C7.56585 0.300269 7.5 0.45924 7.5 0.625V7.5H0.625C0.45924 7.5 0.300269 7.56585 0.183058 7.68306C0.065848 7.80027 0 7.95924 0 8.125L0 11.875C0 12.0408 0.065848 12.1997 0.183058 12.3169C0.300269 12.4342 0.45924 12.5 0.625 12.5H7.5V19.375C7.5 19.5408 7.56585 19.6997 7.68306 19.8169C7.80027 19.9342 7.95924 20 8.125 20H11.875C12.0408 20 12.1997 19.9342 12.3169 19.8169C12.4342 19.6997 12.5 19.5408 12.5 19.375V12.5H19.375C19.5408 12.5 19.6997 12.4342 19.8169 12.3169C19.9342 12.1997 20 12.0408 20 11.875V8.125C20 7.95924 19.9342 7.80027 19.8169 7.68306C19.6997 7.56585 19.5408 7.5 19.375 7.5Z" fill="white"/>
</svg>
