<svg width="18" height="18" viewBox="0 0 18 18" fill="none" xmlns="http://www.w3.org/2000/svg">
<path d="M14.0993 0.192025L8.99998 5.29138L3.90063 0.192025C3.77768 0.0690769 3.61093 4.68967e-06 3.43705 4.8002e-06C3.26318 4.92177e-06 3.09642 0.0690771 2.97347 0.192025L0.192009 2.97349C0.0690604 3.09644 -1.09804e-05 3.26319 -1.1102e-05 3.43707C-1.08589e-05 3.61094 0.0690606 3.7777 0.192009 3.90065L5.29136 9L0.192009 14.0994C0.0690606 14.2223 -1.08589e-05 14.3891 -1.1102e-05 14.5629C-1.09804e-05 14.7368 0.0690604 14.9036 0.192009 15.0265L2.97347 17.808C3.09642 17.9309 3.26318 18 3.43705 18C3.61093 18 3.77768 17.9309 3.90063 17.808L8.99998 12.7086L14.0993 17.808C14.2223 17.9309 14.389 18 14.5629 18C14.7368 18 14.9035 17.9309 15.0265 17.808L17.808 15.0265C17.9309 14.9036 18 14.7368 18 14.5629C18 14.3891 17.9309 14.2223 17.808 14.0994L12.7086 9L17.808 3.90065C17.9309 3.7777 18 3.61094 18 3.43707C18 3.26319 17.9309 3.09644 17.808 2.97349L15.0265 0.192025C14.9035 0.0690767 14.7368 4.8002e-06 14.5629 4.8002e-06C14.389 5.15388e-06 14.2223 0.0690771 14.0993 0.192025Z" fill="#8035FF"/>
</svg>
