<svg width="256" height="152" viewBox="0 0 256 152" fill="none" xmlns="http://www.w3.org/2000/svg">
<path fill-rule="evenodd" clip-rule="evenodd" d="M184.232 144.604C207.045 145.154 230.359 144.054 252.172 151.855C253.472 152.315 254.902 151.645 255.373 150.345C255.833 149.045 255.162 147.614 253.862 147.144C231.539 139.163 207.695 140.163 184.352 139.603C182.972 139.563 181.822 140.663 181.792 142.044C181.752 143.424 182.852 144.564 184.232 144.604Z" fill="white"/>
<path fill-rule="evenodd" clip-rule="evenodd" d="M182.182 111.482C189.293 104.939 197.054 100.038 206.435 97.6082C207.776 97.2621 208.576 95.8969 208.236 94.5607C207.886 93.2245 206.515 92.4214 205.185 92.7674C194.984 95.4078 186.532 100.691 178.801 107.801C177.781 108.735 177.711 110.318 178.651 111.334C179.581 112.349 181.172 112.416 182.182 111.482Z" fill="white"/>
<path fill-rule="evenodd" clip-rule="evenodd" d="M162.399 40.0485C165.66 28.8719 172.081 20.1286 181.922 13.8147C183.082 13.0696 183.422 11.5214 182.672 10.3602C181.932 9.19902 180.382 8.86095 179.222 9.60606C168.33 16.5971 161.209 26.2725 157.598 38.6473C157.208 39.9715 157.979 41.3618 159.299 41.7478C160.629 42.1349 162.019 41.3727 162.399 40.0485Z" fill="white"/>
<path fill-rule="evenodd" clip-rule="evenodd" d="M50.0323 24.8802C48.092 27.1636 46.3517 29.6239 44.8715 32.2433C44.2114 33.4095 43.0512 35.8879 42.8712 38.0132C42.6712 40.2775 43.4412 42.1878 45.4215 43.194C48.0519 44.5282 50.1523 44.3892 51.7725 43.582C53.3328 42.8069 54.5529 41.2837 55.323 39.2414C56.7932 35.3378 56.5732 29.3719 55.803 25.9674C57.8733 23.8311 60.1437 21.8938 62.5741 20.1715C80.6767 7.34465 107.231 12.0744 127.664 31.2532C134.815 37.9682 138.255 52.0703 140.046 67.2855C142.836 90.976 141.246 117.436 141.026 125.188C140.976 127.102 141.156 128.239 141.256 128.466C141.726 129.582 142.556 129.872 143.136 129.982C143.976 130.132 144.646 129.972 145.186 129.692C145.916 129.308 146.517 128.632 146.797 127.588C146.947 127.012 146.987 126.21 146.967 125.355C146.947 124.762 146.826 124.114 146.947 123.689C147.727 120.966 148.667 118.308 149.587 115.631C152.657 106.63 156.628 98.1961 161.039 89.7719C175.051 63.0039 188.603 34.7207 211.576 14.3267C212.606 13.4115 212.706 11.8293 211.786 10.7972C210.876 9.76502 209.296 9.67098 208.256 10.5871C184.822 31.3842 170.9 60.1545 156.608 87.4525C152.857 94.6185 149.417 101.795 146.556 109.301C146.846 96.0228 146.736 77.643 144.306 61.3806C142.146 46.9175 138.035 34.1356 131.084 27.6076C108.701 6.59753 79.5065 2.03988 59.6836 16.092C57.5633 17.5962 55.5431 19.2505 53.6628 21.0447C43.2913 2.31695 21.088 -5.18921 1.46505 3.76812C0.204866 4.3412 -0.345205 5.82543 0.224879 7.08062C0.804965 8.3358 2.28513 8.88991 3.54532 8.31682C21.2279 0.245632 41.281 7.44867 50.0323 24.8802ZM51.4825 31.1502C50.6723 32.2943 49.9222 33.4805 49.2221 34.7067C48.8521 35.3648 48.2119 36.63 47.9419 37.8682C47.8819 38.1582 47.8719 38.6123 47.8719 38.8223C48.562 39.1624 49.102 39.3264 49.5421 39.1054C50.0922 38.8333 50.3723 38.1932 50.6424 37.4781C51.3225 35.6839 51.5425 33.3055 51.4825 31.1502Z" fill="white"/>
</svg>
