<svg width="50" height="52" viewBox="0 0 50 52" fill="none" xmlns="http://www.w3.org/2000/svg">
<path fill-rule="evenodd" clip-rule="evenodd" d="M5.4011 25.9543C7.58719 24.7128 9.84718 23.1764 11.4585 21.2442C13.3721 18.9493 13.8558 16.3422 14.0166 13.6592C14.2226 10.2123 13.9174 6.63288 14.29 3.15117C14.4274 1.85839 15.0265 1.27341 15.2824 1.01557C15.9292 0.364173 16.6513 0.0934214 17.3629 0.0220969C18.2059 -0.0640652 19.4047 0.049699 20.4023 1.31275C20.5446 1.4936 20.7375 1.77337 20.9047 2.17373C21.0269 2.46732 21.2393 3.41524 21.381 3.79658C21.7327 4.73521 22.055 5.67905 22.3688 6.62987C23.4135 9.79445 24.1711 12.5051 26.1907 15.2259C28.9316 18.9198 31.3999 21.0406 34.349 21.6534C37.2005 22.2461 40.3515 21.4858 44.2759 19.937C44.6468 19.775 45.016 19.6271 45.3838 19.4947C47.1234 18.8652 49.0465 19.7415 49.7137 21.4676C50.3806 23.1923 49.5464 25.1342 47.8367 25.84C47.4798 25.9871 47.1276 26.1292 46.7782 26.264C41.5167 28.5939 36.0036 34.5749 33.0516 39.4821C32.1419 40.9951 31.1173 44.9577 29.8255 47.5979C28.872 49.5456 27.6594 50.9322 26.5439 51.5431C25.7967 51.9538 25.1192 52.0302 24.5416 51.9909C23.7024 51.934 22.9582 51.6158 22.3242 51.0129C21.9787 50.6826 21.6305 50.2201 21.393 49.5931C21.2791 49.2911 21.1328 48.4988 21.0709 48.1394C20.5136 47.0061 19.8834 45.9147 19.3617 44.7641C18.1172 42.0189 16.3479 40.4536 14.2036 38.3517C12.1977 36.3845 10.2198 35.2746 7.4864 34.592C7.14251 34.5696 4.36712 34.3864 3.36167 34.1778C1.8926 33.8711 1.07686 33.068 0.752568 32.6151C0.20144 31.847 0.0309049 31.1211 0.00376921 30.4958C-0.0356804 29.5727 0.233266 28.7294 0.842048 27.9796C1.2189 27.5139 1.81747 27.0202 2.67519 26.68C3.33759 26.4155 5.14721 26.0114 5.4011 25.9543ZM20.1857 18.5213C20.3574 18.7744 20.5374 19.0275 20.7258 19.2817C24.7402 24.6917 28.6446 27.4194 32.9648 28.3161L33.1094 28.3446C30.7613 30.8251 28.7107 33.4966 27.2203 35.9741C26.6066 36.9942 25.9113 39.0112 25.1425 41.0895C23.5705 38.0149 21.5309 36.0052 18.9687 33.4918C17.0116 31.574 15.075 30.2123 12.8154 29.2224C14.2433 28.1406 15.5745 26.9335 16.6848 25.6021C18.5334 23.385 19.5949 21.0064 20.1857 18.5213Z" fill="white"/>
</svg>
