<svg width="152" height="93" viewBox="0 0 152 93" fill="none" xmlns="http://www.w3.org/2000/svg">
<path fill-rule="evenodd" clip-rule="evenodd" d="M35.7815 17.7936C34.3939 19.4265 33.1493 21.1861 32.0907 23.0594C31.6186 23.8934 30.7889 25.6659 30.6601 27.1858C30.5171 28.8052 31.0678 30.1714 32.484 30.891C34.3652 31.8452 35.8674 31.7457 37.0261 31.1685C38.1419 30.6142 39.0145 29.5248 39.5653 28.0642C40.6167 25.2725 40.4593 21.0059 39.9086 18.5711C41.3892 17.0433 43.0129 15.6578 44.751 14.4261C57.6975 5.25266 76.6881 8.63521 91.3011 22.3513C96.4153 27.1537 98.8759 37.239 100.156 48.1205C102.152 65.0632 101.015 83.9865 100.857 89.5306C100.821 90.8996 100.95 91.7122 101.022 91.8746C101.358 92.6728 101.952 92.8802 102.366 92.9589C102.967 93.0662 103.446 92.9518 103.833 92.7515C104.355 92.4768 104.784 91.9933 104.984 91.2472C105.092 90.8352 105.12 90.2616 105.106 89.6501C105.092 89.2259 105.006 88.7624 105.092 88.4584C105.649 86.5114 106.322 84.6102 106.98 82.6954C109.176 76.2587 112.015 70.2268 115.17 64.202C125.191 45.0584 134.883 24.8312 151.313 10.246C152.049 9.59152 152.121 8.45996 151.463 7.7218C150.812 6.98364 149.682 6.91638 148.938 7.57158C132.179 22.445 122.222 43.0206 112.001 62.5433C109.319 67.6682 106.858 72.8003 104.813 78.1685C105.02 68.6725 104.941 55.5279 103.203 43.8975C101.658 33.5539 98.7185 24.4127 93.7473 19.7441C77.7395 4.71835 56.8606 1.45886 42.6839 11.5085C41.1675 12.5842 39.7227 13.7673 38.378 15.0505C30.9606 1.65701 15.0814 -3.71116 1.04776 2.69484C0.146514 3.10469 -0.24688 4.16617 0.160826 5.06384C0.575685 5.96151 1.63425 6.35778 2.5355 5.94793C15.1816 0.175668 29.5229 5.32706 35.7815 17.7936ZM36.8186 22.2776C36.2393 23.0959 35.7028 23.9442 35.2021 24.8212C34.9375 25.2918 34.4797 26.1966 34.2865 27.0821C34.2436 27.2896 34.2365 27.6143 34.2365 27.7645C34.7301 28.0077 35.1162 28.125 35.431 27.9669C35.8244 27.7724 36.0247 27.3146 36.2178 26.8032C36.7042 25.52 36.8616 23.819 36.8186 22.2776Z" fill="#5919C6"/>
</svg>
