<svg width="100" height="50" viewBox="0 0 100 50" fill="none" xmlns="http://www.w3.org/2000/svg">
<path fill-rule="evenodd" clip-rule="evenodd" d="M94.6873 6.76038C75.9169 41.6635 38.4211 55.8536 3.59561 36.204C2.43626 35.5497 0.966078 35.9587 0.311772 37.1038C-0.342535 38.2693 0.0664506 39.7414 1.2258 40.3957C38.554 61.4767 78.8122 46.4482 98.9321 9.05044C99.5619 7.88496 99.1223 6.41257 97.9507 5.77871C96.7791 5.1653 95.3171 5.5949 94.6873 6.76038Z" fill="white"/>
<path d="M32.9022 21.2347C36.7795 21.2347 39.9228 18.0915 39.9228 14.2142C39.9228 10.3368 36.7795 7.19366 32.9022 7.19366C29.0248 7.19366 25.8817 10.3368 25.8817 14.2142C25.8817 18.0915 29.0248 21.2347 32.9022 21.2347Z" fill="white"/>
<path d="M61.9662 13.7666C65.7678 13.7666 68.8496 10.6849 68.8496 6.8833C68.8496 3.08173 65.7678 0 61.9662 0C58.1646 0 55.0829 3.08173 55.0829 6.8833C55.0829 10.6849 58.1646 13.7666 61.9662 13.7666Z" fill="white"/>
</svg>
