<svg width="1440" height="914" viewBox="0 0 1440 914" fill="none" xmlns="http://www.w3.org/2000/svg">
<mask id="mask0_1_142" style="mask-type:alpha" maskUnits="userSpaceOnUse" x="0" y="0" width="1440" height="914">
<rect width="1440" height="914" fill="#D9D9D9"/>
</mask>
<g mask="url(#mask0_1_142)">
<path d="M90 -78.5V1072" stroke="white" stroke-opacity="0.14"/>
<path d="M195 -78.5V1072" stroke="white" stroke-opacity="0.14"/>
<path d="M300 -78.5V1072" stroke="white" stroke-opacity="0.14"/>
<path d="M405 -78.5V1072" stroke="white" stroke-opacity="0.14"/>
<path d="M510 -78.5V1072" stroke="white" stroke-opacity="0.14"/>
<path d="M615 -78.5V1072" stroke="white" stroke-opacity="0.14"/>
<path d="M720 -78.5V1072" stroke="white" stroke-opacity="0.14"/>
<path d="M825 -78.5V1072" stroke="white" stroke-opacity="0.14"/>
<path d="M930 -78.5V1072" stroke="white" stroke-opacity="0.14"/>
<path d="M1035 -78.5V1072" stroke="white" stroke-opacity="0.14"/>
<path d="M1140 -78.5V1072" stroke="white" stroke-opacity="0.14"/>
<path d="M1245 -78.5V1072" stroke="white" stroke-opacity="0.14"/>
<path d="M1350 -78.5V1072" stroke="white" stroke-opacity="0.14"/>
<path d="M-205 811.75L1645 811.75" stroke="white" stroke-opacity="0.14"/>
<path d="M-205 706.75L1645 706.75" stroke="white" stroke-opacity="0.14"/>
<path d="M-205 601.75L1645 601.75" stroke="white" stroke-opacity="0.14"/>
<path d="M-205 496.75L1645 496.75" stroke="white" stroke-opacity="0.14"/>
<path d="M-205 391.75L1645 391.75" stroke="white" stroke-opacity="0.14"/>
<path d="M-205 286.75L1645 286.75" stroke="white" stroke-opacity="0.14"/>
<path d="M-205 181.75L1645 181.75" stroke="white" stroke-opacity="0.14"/>
<path d="M-205 76.7501L1645 76.75" stroke="white" stroke-opacity="0.14"/>
</g>
</svg>
