<svg width="129" height="130" viewBox="0 0 129 130" fill="none" xmlns="http://www.w3.org/2000/svg">
<path d="M64.5001 0L66.2285 48.5158L77.9841 1.42041L69.6107 49.2363L90.8793 5.61954L72.7691 50.6457L102.621 12.4139L75.5663 52.6824L112.697 21.5065L77.8797 55.2575L120.667 32.5L79.6081 58.2583L126.181 44.9139L80.6769 61.5538L129 58.2056L81.0382 65L129 71.7944L80.6769 68.4463L126.181 85.0863L79.6081 71.7418L120.667 97.5L77.8797 74.7428L112.697 108.493L75.5663 77.3175L102.621 117.586L72.7691 79.3546L90.8793 124.381L69.6107 80.7638L77.9841 128.58L66.2285 81.484L64.5001 130L62.7713 81.484L51.0159 128.58L59.3895 80.7638L38.121 124.381L56.231 79.3546L26.3791 117.586L53.4339 77.3175L16.3031 108.493L51.1205 74.7428L8.33371 97.5L49.3917 71.7418L2.81896 85.0863L48.3233 68.4463L0 71.7944L47.9619 65L0 58.2056L48.3233 61.5538L2.81896 44.9139L49.3917 58.2583L8.33371 32.5L51.1205 55.2575L16.3031 21.5065L53.4339 52.6824L26.3791 12.4139L56.231 50.6457L38.121 5.61954L59.3895 49.2363L51.0159 1.42041L62.7713 48.5158L64.5001 0Z" fill="white"/>
</svg>
