<svg id="Layer_1" data-name="Layer 1" xmlns="http://www.w3.org/2000/svg" xmlns:xlink="http://www.w3.org/1999/xlink" viewBox="0 0 612 792"><defs><style>.cls-1{fill:url(#linear-gradient);}.cls-2{fill:url(#linear-gradient-2);}.cls-3{fill:url(#linear-gradient-3);}.cls-4{fill:url(#linear-gradient-4);}.cls-5{fill:url(#linear-gradient-5);}.cls-6{fill:url(#linear-gradient-6);}.cls-7{fill:url(#linear-gradient-7);}.cls-8{fill:url(#linear-gradient-8);}.cls-9{fill:url(#linear-gradient-9);}.cls-10{fill:url(#linear-gradient-10);}.cls-11{fill:url(#linear-gradient-11);}.cls-12{fill:url(#linear-gradient-12);}.cls-13{fill:#1a8e61;}.cls-14{fill:url(#linear-gradient-13);}.cls-15{fill:url(#linear-gradient-14);}.cls-16{fill:url(#linear-gradient-15);}.cls-17{fill:url(#linear-gradient-16);}.cls-18{fill:url(#linear-gradient-17);}</style><linearGradient id="linear-gradient" x1="78.98" y1="385.19" x2="78.98" y2="388.58" gradientUnits="userSpaceOnUse"><stop offset="0" stop-color="#c38cfc"/><stop offset="1" stop-color="#4607f9"/></linearGradient><linearGradient id="linear-gradient-2" x1="171.67" y1="394.16" x2="567.18" y2="434.29" gradientUnits="userSpaceOnUse"><stop offset="0" stop-color="#503ffd"/><stop offset="1" stop-color="#b555f7"/></linearGradient><linearGradient id="linear-gradient-3" x1="172.23" y1="388.63" x2="567.74" y2="428.75" xlink:href="#linear-gradient-2"/><linearGradient id="linear-gradient-4" x1="172.9" y1="381.99" x2="568.42" y2="422.11" xlink:href="#linear-gradient-2"/><linearGradient id="linear-gradient-5" x1="173.71" y1="374.04" x2="569.23" y2="414.16" xlink:href="#linear-gradient-2"/><linearGradient id="linear-gradient-6" x1="174.34" y1="367.83" x2="569.86" y2="407.95" xlink:href="#linear-gradient-2"/><linearGradient id="linear-gradient-7" x1="173.04" y1="380.69" x2="568.55" y2="420.81" xlink:href="#linear-gradient-2"/><linearGradient id="linear-gradient-8" x1="175.47" y1="356.7" x2="570.98" y2="396.83" xlink:href="#linear-gradient-2"/><linearGradient id="linear-gradient-9" x1="173.11" y1="380" x2="568.62" y2="420.12" xlink:href="#linear-gradient-2"/><linearGradient id="linear-gradient-10" x1="174.94" y1="361.93" x2="570.45" y2="402.05" xlink:href="#linear-gradient-2"/><linearGradient id="linear-gradient-11" x1="50.18" y1="355.53" x2="139.03" y2="355.53" xlink:href="#linear-gradient-2"/><linearGradient id="linear-gradient-12" x1="81.29" y1="454.54" x2="81.29" y2="354.81" xlink:href="#linear-gradient-2"/><linearGradient id="linear-gradient-13" x1="135.9" y1="429.41" x2="135.9" y2="377.31" xlink:href="#linear-gradient-2"/><linearGradient id="linear-gradient-14" x1="122.68" y1="399.45" x2="149.11" y2="399.45" xlink:href="#linear-gradient-2"/><linearGradient id="linear-gradient-15" x1="136.45" y1="435.41" x2="151.22" y2="435.41" gradientTransform="translate(287.67 870.82) rotate(180)" xlink:href="#linear-gradient-2"/><linearGradient id="linear-gradient-16" x1="150.99" y1="450.18" x2="165.76" y2="450.18" gradientTransform="translate(316.75 900.37) rotate(180)" xlink:href="#linear-gradient-2"/><linearGradient id="linear-gradient-17" x1="121.67" y1="450.18" x2="136.45" y2="450.18" gradientTransform="translate(258.12 900.37) rotate(180)" xlink:href="#linear-gradient-2"/></defs><title>Novads Ai</title><rect width="612" height="792"/><polygon class="cls-1" points="78.57 385.17 79.48 386.78 78.47 388.53 78.57 385.17"/><path class="cls-2" d="M201.93,399.58l-20.35-21.94c-2-2.19-3.45-3.18-7-3.18h-2.78c-3.58,0-5.37,1.66-5.37,4.91v38.19h11.27V389.9l22.21,24c2.25,2.52,3.51,3.65,6.63,3.65h2.32c2.85,0,4.31-1.53,4.31-4.44V374.45h-11.2v25.13Z"/><path class="cls-3" d="M248,374.45h-6.23c-13.19,0-22.81,8.69-22.81,21.55s9.61,21.55,22.81,21.55H248c13.13,0,22.74-8.69,22.74-21.55S261.13,374.45,248,374.45Zm0.8,32H241c-6.1,0-10.48-4.24-10.48-10.41A10.06,10.06,0,0,1,241,385.52h7.82c6,0,10.41,4.24,10.41,10.48A10,10,0,0,1,248.8,406.41Z"/><path class="cls-4" d="M313,374.45L297.6,403.62l-15.45-29.17H269.09l22,39.91a5.58,5.58,0,0,0,5.17,3.18h2.65a5.48,5.48,0,0,0,5.11-3.18l22.08-39.91H313Z"/><path class="cls-5" d="M401.88,374.45h-24.8v43.09h24.8c13.13,0,22.74-8.69,22.74-21.55S415,374.45,401.88,374.45Zm0.8,32h-14V385.52h14c6,0,10.34,4.24,10.34,10.48S408.7,406.41,402.67,406.41Z"/><path class="cls-6" d="M461.81,391.29h-19a2.68,2.68,0,0,1-2.78-2.92,2.6,2.6,0,0,1,2.78-2.85h32.22V374.45H442.32c-8,0-13.79,5.24-13.79,13.06s5.77,13,13.79,13h19a2.75,2.75,0,0,1,2.85,3,2.7,2.7,0,0,1-2.85,2.92H429.06v11.14h32.75c8.09,0,13.86-5.24,13.86-13.19C475.66,396.66,469.9,391.29,461.81,391.29Z"/><path class="cls-7" d="M487.13,407.4h-1.52c-3.18,0-5.44,2-5.44,5s2.25,5.11,5.44,5.11h1.52c3.12,0,5.44-2,5.44-5.11S490.25,407.4,487.13,407.4Z"/><rect class="cls-8" x="557" y="374.45" width="11.6" height="43.09"/><path class="cls-9" d="M345.59,374.45h-2.65a5.64,5.64,0,0,0-5.17,3.18l-22,39.91h12.8l15.78-29.7,7.36,13.86h0l4.91,9.21h0l3.58,6.63h12.6l-22-39.91A5.64,5.64,0,0,0,345.59,374.45Z"/><path class="cls-10" d="M525.52,374.45h-2.65a5.64,5.64,0,0,0-5.17,3.18l-22,39.91h12.8l15.78-29.7,7.36,13.86h0l4.92,9.22h0l3.58,6.63h12.6l-22-39.91A5.64,5.64,0,0,0,525.52,374.45Z"/><path class="cls-11" d="M139,353.81l-16.35,22.83-2.57-4.05a1.43,1.43,0,0,0-.1-0.15l-0.08-.12a1.42,1.42,0,0,0-.13-0.18c-0.09-.14-0.21-0.28-0.35-0.46l-0.21-.27-0.07-.09c-5-6.28-28.31-31.56-69-9A54.11,54.11,0,0,1,139,353.81Z"/><path class="cls-12" d="M119.18,371.32a27.68,27.68,0,0,0-49.35,17.25v41.32L43.4,456.31V388.56a53.75,53.75,0,0,1,6.79-26.22C90.86,339.76,114.22,365,119.18,371.32Z"/><path class="cls-13" d="M119.25,371.41c0.3,0.39.53,0.69,0.68,0.91C119.71,372,119.48,371.7,119.25,371.41Z"/><path class="cls-14" d="M149.11,422.26H130.7v8.94h-8V376.64S144.08,383.86,149.11,422.26Z"/><path class="cls-15" d="M149.11,376.64v45.62c-5-38.4-26.43-45.62-26.43-45.62h26.43Z"/><rect class="cls-16" x="136.45" y="428.02" width="14.78" height="14.78" transform="translate(287.67 870.82) rotate(-180)"/><rect class="cls-17" x="150.99" y="442.8" width="14.78" height="14.78" transform="translate(316.75 900.37) rotate(-180)"/><rect class="cls-18" x="121.67" y="442.8" width="14.78" height="14.78" transform="translate(258.12 900.37) rotate(-180)"/></svg>